<svg xmlns="http://www.w3.org/2000/svg" width="1920" height="1260" viewBox="0 0 1920 1260">
  <defs>
    <style>
      .cls-1 {
        fill-rule: evenodd;
      }
    </style>
  </defs>
  <path id="Color_Fill_1" data-name="Color Fill 1" class="cls-1" d="M0,0H1920V795l-174,3c0.67-.667,1.33-1.333,2-2q9.495-15,19-30,1.5-23.5,3-47l-33-42c-31.97-27.239-78.48-8.621-120-2v-7c2.44-8.2,5.73-39.839,1-45-19.02-18.532-101.04-9.746-136-15-36.86-5.539-82.8-2-123-2-114.08,0-218.97,8.076-327,9-0.91,78.763,2.45,135.5,24,189H983l-58-21-53,18H787l-40-12-60,12H495l-33-18-59,21-136-6-117,6c-22.951,4.472-51.869-8.322-72-12-17.33-3.166-58.59,12.827-78,12V0ZM1670,696c38.27-.971,54.45,7.182,62,37q1.995,9.5,4,19-14.505,24.5-29,49H1599v-1q6-19,12-38l15-12,12-39Q1654.005,703.5,1670,696Z"/>
</svg>
